# xmcd
#
# Track frame offsets:
#	150
#	20602
#	34945
#	51629
#	70156
#	93797
#	124960
#	141615
#	155256
#	172380
#	196871
#	210101
#
# Disc length: 3010 seconds
#
# Revision: 0
# Processed by: cddbd v1.5.1PL0 Copyright (c) Steve Scherf et al.
# Submitted via: dBpowerAMP V4.0
#
DISCID=b00bc00c
DTITLE=Blududerino - Still Feels Real
DYEAR=2005
DGENRE=Blues
TTITLE0=Foolish Longing
TTITLE1=You Make Me
TTITLE2=C'Mon Suzie
TTITLE3=Mary Had A Little Lamb
TTITLE4=Sweetest Thang
TTITLE5=The Sky Is Crying
TTITLE6=Gone Before Dawn
TTITLE7=Blues This Morning
TTITLE8=Rock Bottom
TTITLE9=Still Feels Real
TTITLE10=Tres Cervezas (Instumental)
TTITLE11=C'Mon Suzie (Unplugged)
EXTD=
EXTT0=
EXTT1=
EXTT2=
EXTT3=
EXTT4=
EXTT5=
EXTT6=
EXTT7=
EXTT8=
EXTT9=
EXTT10=
EXTT11=
PLAYORDER=
